<svg width="419.63" height="512" xmlns="http://www.w3.org/2000/svg">
 <title>Minimal Babel Logo</title>

 <g>
  <title>background</title>
  <rect x="-1" y="-1" width="421.63" height="514" id="canvas_background" fill="none"/>
 </g>
 <g>
  <title>Layer 1</title>
  <path d="m87.100001,111.06l-0.07,0l0.17,0l-0.1,0z" fill="none" id="svg_1"/>
  <path d="m95.630001,442a32.06,32.06 0 0 0 3.53,-1.27l-3.53,1.27z" fill="none" id="svg_2"/>
  <path d="m77.670001,117.7c-1.21,0.93 -2.41,1.89 -3.59,2.86s-2.12,1.79 -3.17,2.71l8.49,-6.88l-1.73,1.31z" fill="none" id="svg_3"/>
  <path d="m258.860001,239.56l-10.45,0.9q-63.84,25.12 -93.51,27.68q-53,105.35 -65.76,133.27q23.52,-6.41 90.74,-43.41q3.8,-0.33 52.91,-32.53l44.11,-34.94q14.31,-6 26.19,-40.16l-0.16,-1.89q-15.72,-11.35 -44.07,-8.92z" fill="none" id="svg_4"/>
  <path d="m347.640001,98.54l0.81,-10l3.57,-0.31c0.28,3.29 1.53,4.83 3.74,4.64q8,-10.16 7.38,-17.1a16.56,16.56 0 0 0 -0.43,-2.55a34.19,34.19 0 0 0 -8.74,-6.55l-3.56,0.33l0.71,8.28l-3.32,0.29a16.43,16.43 0 0 0 -2.82,-8.14l-1.68,0.14a20.12,20.12 0 0 0 -0.39,-2.57q-10,-9.6 -40.39,-7q-5.7,0.48 -29.3,4.1l-0.4,-4.7l-5.23,0.45q-24,4.1 -23.38,11.71l-36.4,82.13q-6.13,3.69 -11.22,30.74q-7.17,11.06 -8.31,19.17a13.09,13.09 0 0 1 2.64,0.91q65.64,-28.66 75.89,-29.51q30.81,-19.8 37.75,-28.07q2.15,-0.18 11.13,-12.46q9.92,-0.91 31.95,-33.93z" fill="none" id="svg_5"/>
  <path d="m52.700001,133.91l1.93,3c2.2,-2 4.08,-3.69 5.66,-5l-2.71,-4.07a70.8,70.8 0 0 0 -4.88,6.07z" fill="#010101" id="svg_6"/>
  <path d="m116.750001,72.18l-0.11,-1.18c-3.14,1.83 -6.32,3.65 -9.59,5.47l0.29,3.36a7.85,7.85 0 0 0 1.92,-0.49q7.55,-6.02 7.49,-7.16z" fill="#010101" id="svg_7"/>
  <path d="m207.810001,151.69l36.4,-82.11q-0.66,-7.6 23.38,-11.71l5.23,-0.45l0.4,4.7q23.59,-3.61 29.3,-4.12q30.36,-2.62 40.39,7q-4.1,-18.48 -44.89,-15q-5.68,0.49 -29.3,4.1l-0.4,-4.7l-5.22,0.45q-24,4.1 -23.39,11.72l-36.45,82.1q-6.13,3.69 -11.22,30.75q-9.28,14.33 -8.48,23.74l0.27,3.13a14.23,14.23 0 0 1 4.4,0.29q1.16,-8.11 8.31,-19.17q5.09,-27.02 11.27,-30.72z" fill="#010101" id="svg_8"/>
  <path d="m351.120001,75.26l-0.71,-8.26l3.56,-0.31a34.19,34.19 0 0 1 8.74,6.55q-2.1,-8.43 -13.24,-14.55l-3.56,0.31l0.71,8.28l-1.64,0.15a16.43,16.43 0 0 1 2.83,8.12l3.31,-0.29z" fill="#010101" id="svg_9"/>
  <path d="m248.410001,240.46l10.45,-0.9q28.35,-2.44 44.07,8.92l-0.4,-4.6q-15.89,-15.1 -48.17,-12.32l-10.45,0.9q-63.84,25.13 -93.51,27.69q-67.38,134 -69.73,142.72l1.9,-0.16a39.41,39.41 0 0 0 6.57,-1.3q12.78,-27.93 65.76,-133.27q29.67,-2.55 93.51,-27.68z" fill="#010101" id="svg_10"/>
  <path d="m358.330001,178.42l43.8,-38.52q14.63,-18.9 17.49,-60.61l-0.56,-6.5a43.49,43.49 0 0 0 -7.91,-21.51a43.12,43.12 0 0 1 3.42,13.51l0.55,6.5q-2.85,41.76 -17.49,60.62l-43.82,38.51q-23.28,13.07 -22.67,20q2.58,2.87 5,5.53q2.79,-6.63 22.19,-17.53z" fill="#010101" id="svg_11"/>
  <path d="m61.870001,123.55c-0.63,0.54 -1.25,1.11 -1.87,1.71a7.49,7.49 0 0 1 2,-0.53l-0.13,-1.18z" fill="#010101" id="svg_12"/>
  <path d="m293.230001,338.53q-24.5,15.44 -72.27,52.25q-9.4,7.37 -34,11.05l0.16,1.79l1.89,-0.16l8.4,-2.53l0.15,1.79q-17.4,14.58 -50.87,17.47q-18.88,10.14 -47.53,20.51a32.06,32.06 0 0 1 -3.53,1.27q-13.45,4.78 -29,9.62q-7.77,2.42 -16.06,4.86q-9.56,19.85 -26.89,40.55c-1.56,3.78 -3.15,8.25 -4.78,13.45l0.13,1.57l3.32,-0.29q21.6,-24.19 32.76,-47.26q63,-18.52 96.12,-36.26q33.48,-2.88 50.87,-17.47l-0.16,-1.79l-8.39,2.53l-1.9,0.16l-0.15,-1.79q24.56,-3.69 34,-11.05q47.78,-36.82 72.27,-52.25q75.53,-55.49 71.13,-106.55q-0.16,-1.92 -4.49,-7.81q4.26,50.97 -71.18,106.34z" fill="#010101" id="svg_13"/>
  <path d="m174.520001,73.75q-37.89,12.73 -76.55,41.33l-3.57,0.31q-0.21,-2.44 -7.2,-4.3l-0.17,0q-3.91,2.5 -7.63,5.29l-8.49,6.88c-1.66,1.47 -3.28,3 -4.88,4.53l0,0l0.43,4.93a15.06,15.06 0 0 0 -5.09,2l4.12,6.19a133.79,133.79 0 0 1 26.09,-21.88q7.09,1.88 7.31,4.34l3.56,-0.31q33.26,-24.56 65.93,-37.42a66.4,66.4 0 0 0 6.43,-8.54l-0.29,-3.35z" fill="#010101" id="svg_14"/>
  <path d="m31.670001,461.47l-0.24,-2.78l-0.05,-0.58c-1.64,0.14 -2.7,-0.06 -3.17,-0.61a1.14,1.14 0 0 1 -0.29,-0.68l-3.42,1.88l-3.32,0.29l-0.29,-3.36l-1.9,0.16c-1.87,1.71 -5.81,3.41 -11.78,5.09c-0.91,1.53 -1.82,3.06 -2.71,4.54a11.7,11.7 0 0 0 2.08,4.79q13.36,-3.18 16.91,-6.42l1.89,-0.17l0.29,3.36l3.33,-0.28l2.18,-1.2a12.05,12.05 0 0 0 0.49,-4.03z" fill="#010101" id="svg_15"/>
  <path d="m353.810001,170.42l43.79,-38.51q14.67,-18.91 17.52,-60.62l-0.55,-6.5a43.12,43.12 0 0 0 -3.42,-13.51q-8.79,-20.22 -39.18,-34q-23.62,-16.03 -85.16,-17.28q-51,4.4 -133,36.05a504.74,504.74 0 0 1 -51.25,32.39l0.25,3.36a13.43,13.43 0 0 0 5.08,-2q3.33,-0.28 3.6,2.85l3.42,-1.87l1.66,-0.15l0,0.36l0.11,1.21q0.09,1.14 -7.49,7.13q-8.89,7 -28.37,20.78l1.93,3l-1.66,0.14l-3.7,-1.26q0.13,1.58 -5.08,2l0.15,1.79l4,4.4a13.48,13.48 0 0 1 -5.36,-1.12q-11.64,1 -22.94,16.86l1.93,3q9.75,-9 11.41,-9.11l0.33,3.75l0.1,1.18a7.49,7.49 0 0 0 -2,0.53a27,27 0 0 0 -3.12,1.49l0.7,1l2.71,4.07l0.71,1.07q2.46,-2.64 5,-5.13c1.6,-1.55 3.22,-3.06 4.88,-4.53c1.05,-0.92 2.1,-1.82 3.17,-2.71s2.38,-1.93 3.59,-2.86l1.73,-1.31q3.72,-2.77 7.63,-5.29l0.07,0l0.1,0q7,1.86 7.2,4.3l3.57,-0.31q38.66,-28.59 76.55,-41.33l0.39,3.37a66.4,66.4 0 0 1 -6.43,8.54c-1.34,1.41 -2.4,2.15 -3.17,2.22a11.65,11.65 0 0 0 2.46,6.33q0.55,6.5 -34.36,86.89q-79.32,186.92 -133.31,276.35a11.72,11.72 0 0 0 2.08,4.78c1.86,-0.44 3.56,-0.88 5.13,-1.33c6,-1.68 9.91,-3.38 11.78,-5.09l1.9,-0.16l0.29,3.36l3.32,-0.29l3.42,-1.88a1.14,1.14 0 0 0 0.29,0.68c0.47,0.55 1.53,0.75 3.17,0.61l0.05,0.58l0.24,2.78a12.05,12.05 0 0 1 -0.49,4a46.77,46.77 0 0 1 -5.14,11.11q-5.45,6.12 -11.64,25.83l0.13,1.56l3.33,-0.28c2,-2.26 3.94,-4.5 5.82,-6.74q17.33,-20.66 26.93,-40.5q8.3,-2.44 16.06,-4.86q15.51,-4.84 29,-9.62l3.53,-1.27q28.65,-10.38 47.57,-20.51q33.48,-2.88 50.87,-17.47l-0.15,-1.79l-8.4,2.53l-1.89,0.16l-0.16,-1.79q24.56,-3.69 34,-11.05q47.78,-36.82 72.27,-52.25q75.43,-55.36 71.18,-106.34a1.09,1.09 0 0 0 0,-0.18q-0.42,-4.95 -28.26,-36.06q-2.38,-2.67 -5,-5.53q-0.66,-6.93 22.58,-20zm-76.91,120.11l-44.09,34.94q-49.11,32.2 -52.91,32.53q-67.24,37 -90.74,43.41a39.41,39.41 0 0 1 -6.57,1.3l-1.9,0.16q2.36,-8.78 69.73,-142.72q29.67,-2.56 93.51,-27.69l10.45,-0.9q32.28,-2.77 48.17,12.32l0.4,4.6l0.16,1.89q-11.9,34.2 -26.21,40.16zm27.62,-145.64q-6.93,8.27 -37.71,28.11q-10.21,0.89 -75.9,29.55a13.09,13.09 0 0 0 -2.64,-0.91a14.23,14.23 0 0 0 -4.4,-0.29l-0.27,-3.13q-0.81,-9.41 8.48,-23.74q5.09,-27.06 11.22,-30.75l36.45,-82.1q-0.64,-7.62 23.39,-11.72l5.22,-0.45l0.4,4.7q23.61,-3.6 29.3,-4.1q40.75,-3.55 44.85,14.94a20.12,20.12 0 0 1 0.39,2.54l1.68,-0.14l1.64,-0.15l-0.71,-8.25l3.56,-0.31q11.14,6.12 13.24,14.55a16.56,16.56 0 0 1 0.43,2.55q0.6,6.95 -7.38,17.1c-2.21,0.19 -3.46,-1.35 -3.74,-4.64l-3.57,0.31l-0.81,10q-22,33 -32,33.89q-8.97,12.25 -11.12,12.44z" fill="#ac8a49" id="svg_16"/>
 </g>
</svg>