<svg width="504" height="504" xmlns="http://www.w3.org/2000/svg">
 <g>
  <title>background</title>
  <rect fill="none" id="canvas_background" height="506" width="506" y="-1" x="-1"/>
 </g>

 <g>
  <title>Layer 1</title>
  <path id="svg_1" fill="#ac8a49" d="m490.47791,255.40002c-10.94086,68.25853 -32.22796,88.21102 -69.92635,134.06675c-37.69839,38.85486 -91.92699,103.72963 -168.75084,100.11251c-69.56958,-10.73467 -89.90531,-31.62062 -136.6418,-68.60857c-39.60115,-36.98796 -105.72198,-90.19461 -102.03539,-165.57069c10.94086,-68.25854 32.22796,-88.21103 69.92635,-134.06676c37.69839,-38.85486 91.92699,-103.72963 168.75084,-100.11251c69.56958,10.73467 89.90531,31.62062 136.6418,68.60857c39.60115,37.10464 105.60306,90.19461 102.03539,165.5707z" stroke="null"/>
  <g id="svg_2">
   <path id="svg_3" fill="#181c27" d="m329.6,176.4c6.8,9.4 10.1,20.7 10.1,33.8c0,13.5 -3.4,24.4 -10.2,32.6c-3.8,4.6 -9.4,8.8 -16.9,12.6c11.3,4.1 19.8,10.6 25.6,19.5c5.7,8.9 8.6,19.7 8.6,32.4c0,13.1 -3.3,24.9 -9.8,35.3c-4.2,6.9 -9.4,12.7 -15.7,17.4c-7.1,5.4 -15.4,9.1 -25,11.1c-9.6,2 -20,3 -31.3,3l-99.7,0l0,-221.2l106.9,0c27,0.4 46.1,8.2 57.4,23.5zm-120.2,14.9l0,48.8l53.8,0c9.6,0 17.4,-1.8 23.4,-5.5c6,-3.7 9,-10.1 9,-19.4c0,-10.3 -4,-17.1 -11.9,-20.4c-6.8,-2.3 -15.6,-3.5 -26.1,-3.5l-48.2,0zm0,85.4l0,59l53.7,0c9.6,0 17.1,-1.3 22.4,-3.9c9.7,-4.8 14.5,-14 14.5,-27.6c0,-11.5 -4.7,-19.4 -14.1,-23.7c-5.2,-2.4 -12.6,-3.7 -22.1,-3.8l-54.4,0z"/>
  </g>
 </g>
</svg>