<svg width="504" height="504" xmlns="http://www.w3.org/2000/svg">
 <g>
  <title>background</title>
  <rect x="-1" y="-1" width="506" height="506" id="canvas_background" fill="none"/>
 </g>

 <g>
  <title>Layer 1</title>
  <path stroke="null" d="m490.477907,255.400017c-10.940858,68.258531 -32.227961,88.211024 -69.926351,134.066755c-37.69839,38.854856 -91.926988,103.729631 -168.750836,100.112512c-69.569584,-10.734675 -89.905308,-31.620619 -136.641798,-68.608575c-39.601148,-36.987956 -105.721983,-90.194606 -102.035389,-165.570693c10.940858,-68.258531 32.227961,-88.211024 69.926351,-134.066755c37.69839,-38.854856 91.926988,-103.729631 168.750836,-100.112512c69.569584,10.734675 89.905308,31.620619 136.641798,68.608575c39.601148,37.104637 105.60306,90.194606 102.035389,165.570693z" fill="#ac8a49" id="svg_1"/>
  <g id="svg_2">
   <path d="m329.6,176.4c6.8,9.4 10.1,20.7 10.1,33.8c0,13.5 -3.4,24.4 -10.2,32.6c-3.8,4.6 -9.4,8.8 -16.9,12.6c11.3,4.1 19.8,10.6 25.6,19.5c5.7,8.9 8.6,19.7 8.6,32.4c0,13.1 -3.3,24.9 -9.8,35.3c-4.2,6.9 -9.4,12.7 -15.7,17.4c-7.1,5.4 -15.4,9.1 -25,11.1c-9.6,2 -20,3 -31.3,3l-99.7,0l0,-221.2l106.9,0c27,0.4 46.1,8.2 57.4,23.5zm-120.2,14.9l0,48.8l53.8,0c9.6,0 17.4,-1.8 23.4,-5.5c6,-3.7 9,-10.1 9,-19.4c0,-10.3 -4,-17.1 -11.9,-20.4c-6.8,-2.3 -15.6,-3.5 -26.1,-3.5l-48.2,0zm0,85.4l0,59l53.7,0c9.6,0 17.1,-1.3 22.4,-3.9c9.7,-4.8 14.5,-14 14.5,-27.6c0,-11.5 -4.7,-19.4 -14.1,-23.7c-5.2,-2.4 -12.6,-3.7 -22.1,-3.8l-54.4,0z" fill="#FFFFFF" id="svg_3"/>
  </g>
 </g>
</svg>