<svg width="496" height="496" xmlns="http://www.w3.org/2000/svg">

 <g>
  <title>background</title>
  <rect fill="none" id="canvas_background" height="402" width="582" y="-1" x="-1"/>
 </g>
 <g>
  <title>Layer 1</title>
  <g id="svg_1">
   <g id="svg_2">
    <g id="svg_3">
     <path fill="#e2a83b" id="svg_4" d="m95,137.78l0,128l304,0l0,-128l-16,0l0,64l-272,0l0,-64l-16,0zm288,80l0,32l-272,0l0,-32l272,0z"/>
     <path fill="#e2a83b" id="svg_5" d="m439,281.78l-384,0c-30.88,0 -56,25.128 -56,56s25.12,56 56,56l88,0l0,100.944l40,-20l40,20l0,-84.944l-16,0l0,59.056l-24,-12l-24,12l0,-75.056l80,0l0,100.944l40,-20l40,20l0,-84.944l-16,0l0,59.056l-24,-12l-24,12l0,-75.056l184,0c30.88,0 56,-25.128 56,-56s-25.12,-56 -56,-56zm-384,96c-22.056,0 -40,-17.944 -40,-40c0,-22.056 17.944,-40 40,-40l112.888,0c-10.408,10.176 -16.888,24.336 -16.888,40s6.48,29.824 16.888,40l-112.888,0zm152,0c-22.056,0 -40,-17.944 -40,-40c0,-22.056 17.944,-40 40,-40l32.888,0c-10.408,10.176 -16.888,24.336 -16.888,40s6.48,29.824 16.888,40l-32.888,0zm72,0c-22.056,0 -40,-17.944 -40,-40c0,-22.056 17.944,-40 40,-40l120.888,0c-10.408,10.176 -16.888,24.336 -16.888,40s6.48,29.824 16.888,40l-120.888,0zm160,0c-22.056,0 -40,-17.944 -40,-40c0,-22.056 17.944,-40 40,-40c22.056,0 40,17.944 40,40c0,22.056 -17.944,40 -40,40z"/>
     <path fill="#e2a83b" id="svg_6" d="m39,224.308c2.512,0.896 5.184,1.472 8,1.472s5.488,-0.576 8,-1.472l0,41.472l16,0l0,-64c0,-10.416 -6.712,-19.216 -16,-22.528l0,-70.096l192,69.12l208,-74.88l0,-27.24l-208,-74.88l-208,74.88l0,13.624l0,13.624l0,75.856c-9.288,3.304 -16,12.104 -16,22.52l0,64l16,0l0,-41.472zm16,-134.528l0,-2.376l192,-69.12l192,69.12l0,4.76l-192,69.12l-192,-69.12l0,-2.384zm-8,104c4.408,0 8,3.592 8,8s-3.592,8 -8,8s-8,-3.592 -8,-8s3.592,-8 8,-8z"/>
    </g>
   </g>
  </g>
  <g id="svg_7"/>
  <g id="svg_8"/>
  <g id="svg_9"/>
  <g id="svg_10"/>
  <g id="svg_11"/>
  <g id="svg_12"/>
  <g id="svg_13"/>
  <g id="svg_14"/>
  <g id="svg_15"/>
  <g id="svg_16"/>
  <g id="svg_17"/>
  <g id="svg_18"/>
  <g id="svg_19"/>
  <g id="svg_20"/>
  <g id="svg_21"/>
 </g>
</svg>