<svg width="496" height="496" xmlns="http://www.w3.org/2000/svg">

 <g>
  <title>background</title>
  <rect fill="none" id="canvas_background" height="402" width="582" y="-1" x="-1"/>
 </g>
 <g>
  <title>Layer 1</title>
  <g id="svg_1">
   <g id="svg_2">
    <g id="svg_3">
     <path fill="#e2a83b" id="svg_4" d="m447.812,390.192c-5.368,-32.232 -27.968,-58.68 -58.976,-69.016l-68.832,-22.944l0,-10.232l-16,0l0,11.816c-8.504,5.656 -32.624,20.184 -56,20.184c-23.376,0 -47.496,-14.528 -56,-20.184l0,-11.816l-16,0l0,10.232l-68.832,22.944c-31,10.336 -53.6,36.784 -58.976,69.016l-17.64,105.808l434.888,0l-17.632,-105.808zm-265.096,-77.328c9.512,6.424 36.984,23.136 65.288,23.136s55.776,-16.712 65.288,-23.136l13.896,4.632l-79.184,79.192l-79.192,-79.192l13.904,-4.632zm57.288,167.136l-119.16,0l7.12,-71.2l-15.92,-1.592l-7.28,72.8l-55.312,0l14.528,-87.168c4.392,-26.376 22.888,-48.008 48.256,-56.472l3.616,-1.208l124.152,124.152l0,20.688zm-107.192,-150.504l19.032,-6.344l96.16,96.16l96.16,-96.16l19.032,6.344l-115.192,115.192l-115.192,-115.192zm258.432,150.504l-7.28,-72.8l-15.92,1.592l7.12,71.2l-119.16,0l0,-20.688l124.16,-124.16l3.616,1.208c25.368,8.456 43.856,30.096 48.256,56.472l14.52,87.176l-55.312,0z"/>
     <path fill="#e2a83b" id="svg_5" d="m104.004,176c0,-10.416 -6.712,-19.216 -16,-22.528l0,-65.928l40,28.568l0,28.088c-9.656,7.312 -16,18.784 -16,31.792c0,20.528 15.6,37.296 35.536,39.552c4.08,14.04 11.616,26.912 22.24,37.536l31.2,31.2c7.552,7.56 17.592,11.72 28.28,11.72l37.496,0c10.68,0 20.728,-4.16 28.28,-11.712l31.2,-31.2c10.624,-10.624 18.16,-23.504 22.24,-37.536c19.928,-2.256 35.528,-19.024 35.528,-39.552c0,-13.016 -6.344,-24.488 -16,-31.792l0,-28.088l56,-40l0,-25.984l-157.592,-49.768l-34.408,-0.368l-160,50.136l0,21.864l0,4.12l0,77.36c-9.288,3.304 -16,12.104 -16,22.52l0,32l48,0l0,-32zm24,0c0,-10.416 6.712,-19.216 16,-22.528l0,37.392c0,2.616 0.152,5.208 0.376,7.784c-9.48,-3.208 -16.376,-12.096 -16.376,-22.648zm208,14.864c0,19.232 -7.488,37.312 -21.088,50.912l-31.2,31.2c-4.464,4.464 -10.648,7.024 -16.968,7.024l-37.496,0c-6.32,0 -12.496,-2.56 -16.968,-7.024l-31.2,-31.2c-13.6,-13.6 -21.088,-31.68 -21.088,-50.912l0,-44.944c19.64,-4.464 51.128,-9.92 88.008,-9.92c36.816,0 68.344,5.464 88,9.928l0,44.936zm-88,-70.864c-47.632,0 -86.224,8.568 -104,13.336l0,-15.384c14.136,-4.008 54.24,-13.952 104,-13.952c49.64,0 89.84,9.952 104,13.952l0,15.376c-17.776,-4.76 -56.368,-13.328 -104,-13.328zm103.624,78.64c0.224,-2.568 0.376,-5.16 0.376,-7.776l0,-37.392c9.288,3.312 16,12.112 16,22.528c0,10.552 -6.896,19.44 -16.376,22.64zm-263.624,-136.776l145.232,-45.864l29.528,0l145.24,45.864l0,6.016l-49.424,35.304c-12.792,-3.8 -55.616,-15.184 -110.576,-15.184c-54.96,0 -97.784,11.384 -110.576,15.184l-49.424,-35.304l0,-6.016zm0,130.136l-16,0l0,-16c0,-4.408 3.592,-8 8,-8s8,3.592 8,8l0,16z"/>
     <rect fill="#e2a83b" id="svg_6" height="48" width="16" y="224" x="88.004"/>
     <rect fill="#e2a83b" id="svg_7" height="48" width="16" y="224" x="56.004"/>
    </g>
   </g>
  </g>
  <g id="svg_8"/>
  <g id="svg_9"/>
  <g id="svg_10"/>
  <g id="svg_11"/>
  <g id="svg_12"/>
  <g id="svg_13"/>
  <g id="svg_14"/>
  <g id="svg_15"/>
  <g id="svg_16"/>
  <g id="svg_17"/>
  <g id="svg_18"/>
  <g id="svg_19"/>
  <g id="svg_20"/>
  <g id="svg_21"/>
  <g id="svg_22"/>
 </g>
</svg>