<svg width="496" height="496" xmlns="http://www.w3.org/2000/svg">

 <g>
  <title>background</title>
  <rect fill="none" id="canvas_background" height="402" width="582" y="-1" x="-1"/>
 </g>
 <g>
  <title>Layer 1</title>
  <g id="svg_1">
   <g id="svg_2">
    <g id="svg_3">
     <rect fill="#e2a83b" id="svg_4" height="104" width="16" y="240" x="272"/>
     <rect fill="#e2a83b" id="svg_5" height="104" width="16" y="240" x="208"/>
     <path fill="#e2a83b" id="svg_6" d="m312,232l0,48c0,13.232 10.768,24 24,24l32,0l0,-16l-32,0c-4.416,0 -8,-3.584 -8,-8l0,-48l-16,0z"/>
     <path fill="#e2a83b" id="svg_7" d="m184,280l0,-48l-16,0l0,48c0,4.416 -3.584,8 -8,8l-32,0l0,16l32,0c13.232,0 24,-10.768 24,-24z"/>
     <rect fill="#e2a83b" id="svg_8" height="16" width="16" y="360" x="272"/>
     <rect fill="#e2a83b" id="svg_9" height="16" width="16" y="360" x="208"/>
     <rect fill="#e2a83b" id="svg_10" height="16" width="16" y="288" x="384"/>
     <path fill="#e2a83b" id="svg_11" d="m144.912,136.576c-0.608,2.44 -0.912,4.928 -0.912,7.424c0,11.616 6.344,22.168 16.216,27.784c-0.128,1.392 -0.216,2.792 -0.216,4.216c0,26.472 21.528,48 48,48c16.688,0 31.392,-8.568 40,-21.52c8.608,12.96 23.312,21.52 40,21.52c26.472,0 48,-21.528 48,-48c0,-1.424 -0.088,-2.824 -0.216,-4.216c9.872,-5.616 16.216,-16.168 16.216,-27.784c0,-2.496 -0.304,-4.984 -0.912,-7.424c10.456,-7.408 16.912,-19.528 16.912,-32.576c0,-12.928 -6.36,-25.016 -16.76,-32.48c0.464,-2.44 0.76,-4.944 0.76,-7.52c0,-20.392 -15.392,-37.072 -35.136,-39.504c-6.072,-14.376 -20.304,-24.496 -36.864,-24.496c-13.128,0 -24.704,6.448 -32,16.248c-7.296,-9.8 -18.872,-16.248 -32,-16.248c-16.56,0 -30.792,10.12 -36.864,24.496c-19.744,2.432 -35.136,19.112 -35.136,39.504c0,2.576 0.296,5.08 0.76,7.52c-10.4,7.464 -16.76,19.552 -16.76,32.48c0,13.048 6.456,25.168 16.912,32.576zm111.088,-96.576c0,-13.232 10.768,-24 24,-24s24,10.768 24,24s-10.768,24 -24,24l0,16c21.568,0 39.08,-17.192 39.856,-38.568c9.368,3.272 16.144,12.096 16.144,22.568c0,13.232 -10.768,24 -24,24l0,16c13.544,0 25.496,-6.808 32.736,-17.144c4.56,4.472 7.264,10.624 7.264,17.144c0,9.328 -5.52,17.872 -14.08,21.776l-7.64,3.496l3.848,7.464c1.248,2.392 1.872,4.832 1.872,7.264c0,4.328 -1.888,8.24 -4.816,11.184c-7.768,-16.056 -24.184,-27.184 -43.184,-27.184l0,16c17.648,0 32,14.352 32,32s-14.352,32 -32,32s-32,-14.352 -32,-32l0,-136zm-104.736,46.856c7.24,10.336 19.192,17.144 32.736,17.144l0,-16c-13.232,0 -24,-10.768 -24,-24c0,-10.472 6.776,-19.296 16.144,-22.568c0.776,21.376 18.288,38.568 39.856,38.568l0,-16c-13.232,0 -24,-10.768 -24,-24s10.768,-24 24,-24s24,10.768 24,24l0,136c0,17.648 -14.352,32 -32,32s-32,-14.352 -32,-32s14.352,-32 32,-32l0,-16c-19,0 -35.416,11.128 -43.184,27.184c-2.928,-2.944 -4.816,-6.856 -4.816,-11.184c0,-2.432 0.624,-4.872 1.864,-7.272l3.848,-7.464l-7.64,-3.496c-8.552,-3.896 -14.072,-12.44 -14.072,-21.768c0,-6.52 2.704,-12.672 7.264,-17.144z"/>
     <polygon fill="#e2a83b" id="svg_12" points="448,88 384,88 384,104 432,104 432,392 256,392 256,224 240,224 240,392 64,392 64,104 112,104 112,88 48,88      48,408 448,408    "/>
     <path fill="#e2a83b" id="svg_13" d="m464,160l0,16l16,0l0,264l-200,0l0,8c0,17.648 -14.352,32 -32,32s-32,-14.352 -32,-32l0,-8l-200,0l0,-264l16,0l0,-16l-32,0l0,296l200.664,0c3.824,22.672 23.592,40 47.336,40s43.512,-17.328 47.336,-40l200.664,0l0,-296l-32,0z"/>
     <rect fill="#e2a83b" id="svg_14" height="16" width="16" y="288" x="96"/>
    </g>
   </g>
  </g>
  <g id="svg_15"/>
  <g id="svg_16"/>
  <g id="svg_17"/>
  <g id="svg_18"/>
  <g id="svg_19"/>
  <g id="svg_20"/>
  <g id="svg_21"/>
  <g id="svg_22"/>
  <g id="svg_23"/>
  <g id="svg_24"/>
  <g id="svg_25"/>
  <g id="svg_26"/>
  <g id="svg_27"/>
  <g id="svg_28"/>
  <g id="svg_29"/>
 </g>
</svg>