<svg width="512.00011" height="512" xmlns="http://www.w3.org/2000/svg">
 <g>
  <title>background</title>
  <rect x="-1" y="-1" width="514.00011" height="514" id="canvas_background" fill="none"/>
 </g>

 <g>
  <title>Layer 1</title>
  <path d="m502.09375,55.859375c-6.253906,-7.648437 -15.621094,-11.859375 -26.378906,-11.859375c-5.847656,0 -12.042969,1.230469 -18.410156,3.664062l-433.398438,165.441407c-23,8.777343 -26.097656,21.949219 -25.898438,29.019531s4.039063,20.046875 27.5,27.511719c0.140626,0.042969 0.28125,0.085937 0.421876,0.125l89.898437,25.726562l48.617187,139.023438c6.628907,18.953125 21.507813,30.726562 38.835938,30.726562c10.925781,0 21.671875,-4.578125 31.078125,-13.234375l55.605469,-51.199218l80.652344,64.941406c0.007812,0.007812 0.019531,0.011718 0.027343,0.019531l0.765625,0.617187c0.070313,0.054688 0.144532,0.113282 0.214844,0.167969c8.964844,6.953125 18.75,10.625 28.308594,10.628907l0.003906,0c18.675781,0 33.546875,-13.824219 37.878906,-35.214844l71.011719,-350.640625c2.851563,-14.074219 0.460937,-26.667969 -6.734375,-35.464844zm-356.191406,234.742187l173.441406,-88.605468l-107.996094,114.753906c-1.769531,1.878906 -3.023437,4.179688 -3.640625,6.683594l-20.824219,84.351562l-40.980468,-117.183594zm68.132812,139.332032c-0.71875,0.660156 -1.441406,1.25 -2.164062,1.792968l19.320312,-78.25l35.144532,28.300782l-52.300782,48.15625zm265.390625,-344.566406l-71.011719,350.644531c-0.683593,3.355469 -2.867187,11.164062 -8.480468,11.164062c-2.773438,0 -6.257813,-1.511719 -9.824219,-4.257812l-91.390625,-73.585938c-0.011719,-0.011719 -0.027344,-0.023437 -0.042969,-0.03125l-54.378906,-43.789062l156.175781,-165.949219c5,-5.3125 5.453125,-13.449219 1.074219,-19.285156c-4.382813,-5.835938 -12.324219,-7.671875 -18.820313,-4.351563l-256.867187,131.226563l-91.121094,-26.070313l433.265625,-165.390625c3.660156,-1.398437 6.214844,-1.691406 7.710938,-1.691406c0.917968,0 2.550781,0.109375 3.15625,0.855469c0.796875,0.972656 1.8125,4.289062 0.554687,10.511719zm0,0" id="svg_1" fill="#bca87b"/>
 </g>
</svg>